<mxfile host="app.diagrams.net" modified="2023-12-09T11:38:47.444Z" agent="Mozilla/5.0 (Windows NT 10.0; Win64; x64) AppleWebKit/537.36 (KHTML, like Gecko) Chrome/119.0.0.0 Safari/537.36" etag="7HxYJiQ4-0nk6C5VgT5G" version="22.1.7" type="google">
  <diagram id="C5RBs43oDa-KdzZeNtuy" name="Page-1">
    <mxGraphModel grid="1" page="1" gridSize="10" guides="1" tooltips="1" connect="1" arrows="1" fold="1" pageScale="1" pageWidth="827" pageHeight="1169" math="0" shadow="0">
      <root>
        <mxCell id="WIyWlLk6GJQsqaUBKTNV-0" />
        <mxCell id="WIyWlLk6GJQsqaUBKTNV-1" parent="WIyWlLk6GJQsqaUBKTNV-0" />
        <mxCell id="OfLAo0srSlns3UWpNbNF-0" style="edgeStyle=orthogonalEdgeStyle;rounded=0;orthogonalLoop=1;jettySize=auto;html=1;exitX=0.5;exitY=1;exitDx=0;exitDy=0;entryX=0.5;entryY=0;entryDx=0;entryDy=0;" edge="1" parent="WIyWlLk6GJQsqaUBKTNV-1" source="OfLAo0srSlns3UWpNbNF-1" target="OfLAo0srSlns3UWpNbNF-4">
          <mxGeometry relative="1" as="geometry" />
        </mxCell>
        <mxCell id="OfLAo0srSlns3UWpNbNF-1" value="データ送信&lt;br&gt;(blade)&lt;br&gt;(開始)" style="shape=process;whiteSpace=wrap;html=1;backgroundOutline=1;" vertex="1" parent="WIyWlLk6GJQsqaUBKTNV-1">
          <mxGeometry x="354" y="80" width="120" height="60" as="geometry" />
        </mxCell>
        <mxCell id="OfLAo0srSlns3UWpNbNF-2" value="データ送信&lt;br&gt;(blade)&lt;br&gt;(終了)" style="shape=process;whiteSpace=wrap;html=1;backgroundOutline=1;" vertex="1" parent="WIyWlLk6GJQsqaUBKTNV-1">
          <mxGeometry x="354" y="450" width="120" height="60" as="geometry" />
        </mxCell>
        <mxCell id="OfLAo0srSlns3UWpNbNF-3" style="edgeStyle=orthogonalEdgeStyle;rounded=0;orthogonalLoop=1;jettySize=auto;html=1;exitX=0.5;exitY=1;exitDx=0;exitDy=0;entryX=0.5;entryY=0;entryDx=0;entryDy=0;" edge="1" parent="WIyWlLk6GJQsqaUBKTNV-1" source="OfLAo0srSlns3UWpNbNF-4" target="OfLAo0srSlns3UWpNbNF-6">
          <mxGeometry relative="1" as="geometry" />
        </mxCell>
        <mxCell id="OfLAo0srSlns3UWpNbNF-4" value="データ受け取り" style="rounded=1;whiteSpace=wrap;html=1;arcSize=50;" vertex="1" parent="WIyWlLk6GJQsqaUBKTNV-1">
          <mxGeometry x="354" y="200" width="120" height="60" as="geometry" />
        </mxCell>
        <mxCell id="OfLAo0srSlns3UWpNbNF-5" style="edgeStyle=orthogonalEdgeStyle;rounded=0;orthogonalLoop=1;jettySize=auto;html=1;exitX=0.5;exitY=1;exitDx=0;exitDy=0;entryX=0.5;entryY=0;entryDx=0;entryDy=0;" edge="1" parent="WIyWlLk6GJQsqaUBKTNV-1" source="OfLAo0srSlns3UWpNbNF-6" target="OfLAo0srSlns3UWpNbNF-2">
          <mxGeometry relative="1" as="geometry" />
        </mxCell>
        <mxCell id="OfLAo0srSlns3UWpNbNF-6" value="データ送信先&lt;br style=&quot;border-color: var(--border-color);&quot;&gt;受け取り" style="rounded=1;whiteSpace=wrap;html=1;arcSize=50;" vertex="1" parent="WIyWlLk6GJQsqaUBKTNV-1">
          <mxGeometry x="354" y="330" width="120" height="60" as="geometry" />
        </mxCell>
      </root>
    </mxGraphModel>
  </diagram>
</mxfile>
